<svg width="40" height="40" viewBox="0 0 40 40" fill="none" xmlns="http://www.w3.org/2000/svg">
<circle cx="20" cy="20" r="19.5" fill="url(#paint0_linear)" stroke="#E7EAEE"/>
<path fill-rule="evenodd" clip-rule="evenodd" d="M13.7525 22.9622C13.6265 22.8363 13.4215 22.8363 13.2945 22.9622C13.2025 23.0542 12.0515 26.4932 12.0085 26.6243C11.9545 26.8573 12.1635 27.0602 12.3975 27.0093C12.5205 26.9683 15.9645 25.8153 16.0565 25.7242C16.1825 25.5972 16.1825 25.3923 16.0565 25.2663L13.7525 22.9622ZM22.7485 13.8463C22.5805 13.6762 22.3065 13.6773 22.1385 13.8463L14.2115 21.7723C14.0435 21.9412 14.0425 22.2133 14.2115 22.3833L16.6355 24.8073C16.8035 24.9753 17.0775 24.9753 17.2455 24.8073L25.1725 16.8802C25.3415 16.7112 25.3415 16.4383 25.1725 16.2692L22.7485 13.8463ZM26.0735 11.2842C25.6935 10.9052 25.0795 10.9052 24.6995 11.2842L23.2685 12.7162C23.0995 12.8842 23.0995 13.1572 23.2685 13.3273L25.6915 15.7502C25.8605 15.9193 26.1335 15.9193 26.3025 15.7502L27.7335 14.3193C28.1135 13.9392 28.1135 13.3242 27.7335 12.9442L26.0735 11.2842Z" fill="#354052"/>
<defs>
<linearGradient id="paint0_linear" x1="40" y1="40" x2="40" y2="0" gradientUnits="userSpaceOnUse">
<stop stop-color="#F4F7F9"/>
<stop offset="1" stop-color="#F4F7F9"/>
</linearGradient>
</defs>
</svg>
