<svg width="16" height="16" viewBox="0 0 16 16" fill="none" xmlns="http://www.w3.org/2000/svg">
<path fill-rule="evenodd" clip-rule="evenodd" d="M8 5C6.343 5 5 6.343 5 8C5 9.657 6.343 11 8 11C9.657 11 11 9.657 11 8C11 6.343 9.657 5 8 5ZM16 7V9H13.909C13.76 9.886 13.408 10.699 12.915 11.407L15.012 13.231L13.568 15.013L11.257 13.003C10.583 13.44 9.825 13.76 9 13.899V16H7V13.909C6.173 13.77 5.413 13.448 4.74 13.006L2.432 15.013L0.988 13.231L3.089 11.404C2.6 10.697 2.25 9.884 2.101 9H0V7H2.091C2.24 6.114 2.592 5.301 3.085 4.593L0.988 2.77L2.432 0.987L4.744 2.997C5.417 2.56 6.175 2.24 7 2.101V0H9V2.101C9.825 2.24 10.583 2.56 11.257 2.997L13.568 0.987L15.012 2.77L12.915 4.593C13.408 5.301 13.76 6.114 13.909 7H16Z" fill="#475364"/>
</svg>
