<svg width="16" height="16" viewBox="0 0 16 16" fill="none" xmlns="http://www.w3.org/2000/svg">
<path fill-rule="evenodd" clip-rule="evenodd" d="M11 5H14V2H11V5ZM15 0H10C9.448 0 9 0.448 9 1V6C9 6.552 9.448 7 10 7H15C15.552 7 16 6.552 16 6V1C16 0.448 15.552 0 15 0ZM2 5H5V2H2V5ZM6 0H1C0.448 0 0 0.448 0 1V6C0 6.552 0.448 7 1 7H6C6.552 7 7 6.552 7 6V1C7 0.448 6.552 0 6 0ZM11 14H14V11H11V14ZM15 9H10C9.448 9 9 9.448 9 10V15C9 15.552 9.448 16 10 16H15C15.552 16 16 15.552 16 15V10C16 9.448 15.552 9 15 9ZM2 14H5V11H2V14ZM6 9H1C0.448 9 0 9.448 0 10V15C0 15.552 0.448 16 1 16H6C6.552 16 7 15.552 7 15V10C7 9.448 6.552 9 6 9Z" fill="#475364"/>
</svg>
